<svg width="24" height="24" viewBox="0 0 24 24" fill="none" xmlns="http://www.w3.org/2000/svg">
<path d="M3 6.99992H6" stroke="#848484" stroke-width="1.5" stroke-linecap="round" stroke-linejoin="round"/>
<path d="M3 17.0001H9" stroke="#848484" stroke-width="1.5" stroke-linecap="round" stroke-linejoin="round"/>
<path d="M18 17.0001H21" stroke="#848484" stroke-width="1.5" stroke-linecap="round" stroke-linejoin="round"/>
<path d="M15 6.99992H21" stroke="#848484" stroke-width="1.5" stroke-linecap="round" stroke-linejoin="round"/>
<path d="M6 6.99992C6 6.06804 6 5.6021 6.15224 5.23455C6.35523 4.7445 6.74458 4.35515 7.23463 4.15216C7.60218 3.99992 8.06812 3.99992 9 3.99992C9.93188 3.99992 10.3978 3.99992 10.7654 4.15216C11.2554 4.35515 11.6448 4.7445 11.8478 5.23455C12 5.6021 12 6.06804 12 6.99992C12 7.9318 12 8.39775 11.8478 8.7653C11.6448 9.25535 11.2554 9.64469 10.7654 9.84768C10.3978 9.99992 9.93188 9.99992 9 9.99992C8.06812 9.99992 7.60218 9.99992 7.23463 9.84768C6.74458 9.64469 6.35523 9.25535 6.15224 8.7653C6 8.39775 6 7.9318 6 6.99992Z" stroke="#848484" stroke-width="1.5"/>
<path d="M12 17.0001C12 16.0682 12 15.6023 12.1522 15.2347C12.3552 14.7447 12.7446 14.3553 13.2346 14.1523C13.6022 14.0001 14.0681 14.0001 15 14.0001C15.9319 14.0001 16.3978 14.0001 16.7654 14.1523C17.2554 14.3553 17.6448 14.7447 17.8478 15.2347C18 15.6023 18 16.0682 18 17.0001C18 17.932 18 18.3979 17.8478 18.7655C17.6448 19.2555 17.2554 19.6449 16.7654 19.8479C16.3978 20.0001 15.9319 20.0001 15 20.0001C14.0681 20.0001 13.6022 20.0001 13.2346 19.8479C12.7446 19.6449 12.3552 19.2555 12.1522 18.7655C12 18.3979 12 17.932 12 17.0001Z" stroke="#848484" stroke-width="1.5"/>
</svg>
