<svg width="40" height="40" viewBox="0 0 40 40" fill="none" xmlns="http://www.w3.org/2000/svg">
<path d="M4.99995 6.66676V33.3334C4.99995 34.9048 4.99995 35.6904 5.4881 36.1786C5.97627 36.6668 6.76194 36.6668 8.33329 36.6668H31.6666C33.238 36.6668 34.0236 36.6668 34.5118 36.1786C35 35.6904 35 34.9048 35 33.3334V6.66676" stroke="#848484" stroke-width="2.34375" stroke-linecap="round" stroke-linejoin="round"/>
<path d="M17.5 13.3333V15.8333M17.5 15.8333V18.3333M17.5 15.8333H22.5M22.5 13.3333V15.8333M22.5 15.8333V18.3333" stroke="#848484" stroke-width="2.34375" stroke-linecap="round" stroke-linejoin="round"/>
<path d="M23.3333 36.6667V29.9998C23.3333 28.159 21.841 26.6665 20 26.6665C18.159 26.6665 16.6666 28.159 16.6666 29.9998V36.6667" stroke="#848484" stroke-width="2.34375" stroke-linecap="round" stroke-linejoin="round"/>
<path d="M3.33339 6.66649H13.3334C14.3999 4.71194 16.9829 3.33316 20.0001 3.33316C23.0172 3.33316 25.6002 4.71194 26.6667 6.66649H36.6667" stroke="#848484" stroke-width="2.34375" stroke-linecap="round" stroke-linejoin="round"/>
<path d="M10 13.3333H11.6667M10 19.9999H11.6667M10 26.6666H11.6667" stroke="#848484" stroke-width="2.34375" stroke-linecap="round" stroke-linejoin="round"/>
<path d="M28.3334 13.3333H30.0001M28.3334 19.9999H30.0001M28.3334 26.6666H30.0001" stroke="#848484" stroke-width="2.34375" stroke-linecap="round" stroke-linejoin="round"/>
</svg>
