<svg width="40" height="40" viewBox="0 0 40 40" fill="none" xmlns="http://www.w3.org/2000/svg">
<path d="M3.33334 34.1667H36.6667" stroke="#848484" stroke-width="2.34375" stroke-linecap="round" stroke-linejoin="round"/>
<path d="M5.08714 24.6248C5.86445 24.1318 6.65574 23.4167 6.76942 22.5033C7.5881 15.9245 13.1995 10.8333 20 10.8333C26.8005 10.8333 32.4118 15.9245 33.2307 22.5033C33.3443 23.4167 34.1355 24.1318 34.9128 24.6248C35.6018 25.0618 36.102 25.7788 36.2443 26.6327L36.6667 28.3333H3.33334L3.75567 26.6327C3.89797 25.7788 4.39815 25.0618 5.08714 24.6248Z" stroke="#848484" stroke-width="2.34375" stroke-linecap="round" stroke-linejoin="round"/>
<path d="M20 10.8333V5.83333M20 5.83333H15.8333M20 5.83333H24.1667" stroke="#848484" stroke-width="2.34375" stroke-linecap="round" stroke-linejoin="round"/>
<path d="M31.6667 9.16667L30.8333 10.8333M35.8333 13.3333L34.1682 14.1667" stroke="#848484" stroke-width="2.34375" stroke-linecap="round" stroke-linejoin="round"/>
<path d="M8.33333 9.16667L9.16666 10.8333M5.83188 14.1667L4.16666 13.3333" stroke="#848484" stroke-width="2.34375" stroke-linecap="round" stroke-linejoin="round"/>
</svg>
