<svg width="43" height="43" viewBox="0 0 43 43" fill="none" xmlns="http://www.w3.org/2000/svg">
<path d="M5.31071 7.08105V35.405C5.31071 37.074 5.31071 37.9084 5.8292 38.4269C6.34771 38.9455 7.1822 38.9455 8.8512 38.9455H33.6346C35.3036 38.9455 36.1381 38.9455 36.6566 38.4269C37.1751 37.9084 37.1751 37.074 37.1751 35.405V7.08105" stroke="#848484" stroke-width="2.48941" stroke-linecap="round" stroke-linejoin="round"/>
<path d="M18.5876 14.1619V16.8172M18.5876 16.8172V19.4726M18.5876 16.8172H23.8983M23.8983 14.1619V16.8172M23.8983 16.8172V19.4726" stroke="#848484" stroke-width="2.48941" stroke-linecap="round" stroke-linejoin="round"/>
<path d="M24.7834 38.9454V31.8642C24.7834 29.909 23.1983 28.3237 21.2429 28.3237C19.2875 28.3237 17.7024 29.909 17.7024 31.8642V38.9454" stroke="#848484" stroke-width="2.48941" stroke-linecap="round" stroke-linejoin="round"/>
<path d="M3.54051 7.08088H14.162C15.2948 5.00486 18.0383 3.54039 21.243 3.54039C24.4476 3.54039 27.1912 5.00486 28.3239 7.08088H38.9454" stroke="#848484" stroke-width="2.48941" stroke-linecap="round" stroke-linejoin="round"/>
<path d="M10.6215 14.1619H12.3917M10.6215 21.2428H12.3917M10.6215 28.3238H12.3917" stroke="#848484" stroke-width="2.48941" stroke-linecap="round" stroke-linejoin="round"/>
<path d="M30.0942 14.1619H31.8644M30.0942 21.2428H31.8644M30.0942 28.3238H31.8644" stroke="#848484" stroke-width="2.48941" stroke-linecap="round" stroke-linejoin="round"/>
</svg>
