<svg width="40" height="40" viewBox="0 0 40 40" fill="none" xmlns="http://www.w3.org/2000/svg">
<path d="M6.66664 35.0017L11.6678 30.0001" stroke="#848484" stroke-width="2.5" stroke-linecap="round" stroke-linejoin="round"/>
<path d="M25 16.6682L23.3334 18.3349" stroke="#848484" stroke-width="2.5" stroke-linecap="round" stroke-linejoin="round"/>
<path d="M29.9998 5.00163L24.9998 10.0016C24.0912 10.9104 23.6368 11.3648 23.3938 11.8549C22.9317 12.7875 22.9317 13.8824 23.3938 14.815C23.6368 15.3052 24.0912 15.7596 24.9998 16.6683C25.9087 17.577 26.363 18.0315 26.8532 18.2743C27.7858 18.7365 28.8807 18.7365 29.8133 18.2743C30.3035 18.0315 30.7578 17.577 31.6665 16.6683L36.6665 11.6683" stroke="#848484" stroke-width="2.5" stroke-linecap="round" stroke-linejoin="round"/>
<path d="M33.3334 8.33316L28.3334 13.3332" stroke="#848484" stroke-width="2.5" stroke-linecap="round" stroke-linejoin="round"/>
<path d="M33.3334 35L20.0001 21.6667M20.0001 21.6667L3.33339 5.00002C3.33339 11.4029 5.87692 17.5435 10.4045 22.071L15.0001 26.6667L20.0001 21.6667Z" stroke="#848484" stroke-width="2.5" stroke-linecap="round" stroke-linejoin="round"/>
</svg>
