<svg width="28" height="28" viewBox="0 0 28 28" fill="none" xmlns="http://www.w3.org/2000/svg">
<path d="M9.3335 18.6667L19.507 17.8188C22.6902 17.5537 23.4048 16.8583 23.7576 13.6837L24.5002 6.99999" stroke="#414141" stroke-width="1.75" stroke-linecap="round"/>
<path d="M6.99974 6.99999H25.6664" stroke="#414141" stroke-width="1.75" stroke-linecap="round"/>
<path d="M6.99982 25.6667C8.28848 25.6667 9.33315 24.622 9.33315 23.3334C9.33315 22.0447 8.28848 21 6.99982 21C5.71115 21 4.66648 22.0447 4.66648 23.3334C4.66648 24.622 5.71115 25.6667 6.99982 25.6667Z" stroke="#414141" stroke-width="1.75"/>
<path d="M19.833 25.6667C21.1216 25.6667 22.1663 24.622 22.1663 23.3334C22.1663 22.0447 21.1216 21 19.833 21C18.5443 21 17.4996 22.0447 17.4996 23.3334C17.4996 24.622 18.5443 25.6667 19.833 25.6667Z" stroke="#414141" stroke-width="1.75"/>
<path d="M9.3335 23.3333H17.5002" stroke="#414141" stroke-width="1.75" stroke-linecap="round"/>
<path d="M2.33323 2.33323H3.46023C4.56236 2.33323 5.52306 3.06192 5.79037 4.10065L9.2615 17.5891C9.43691 18.2708 9.2868 18.9929 8.85285 19.5551L7.73738 20.9999" stroke="#414141" stroke-width="1.75" stroke-linecap="round"/>
</svg>
