<svg width="12" height="12" viewBox="0 0 12 12" fill="none" xmlns="http://www.w3.org/2000/svg">
<path d="M8.50048 9.99982C9.05276 9.99982 9.50048 9.55211 9.50048 8.99982C9.50048 8.44754 9.05276 7.99982 8.50048 7.99982C7.94819 7.99982 7.50048 8.44754 7.50048 8.99982C7.50048 9.55211 7.94819 9.99982 8.50048 9.99982Z" stroke="#848484" stroke-width="0.75"/>
<path d="M3.49973 9.99982C4.05201 9.99982 4.49973 9.55211 4.49973 8.99982C4.49973 8.44754 4.05201 7.99982 3.49973 7.99982C2.94744 7.99982 2.49973 8.44754 2.49973 8.99982C2.49973 9.55211 2.94744 9.99982 3.49973 9.99982Z" stroke="#848484" stroke-width="0.75"/>
<path d="M2.49987 8.98598C1.95151 8.95868 1.60942 8.87707 1.36598 8.63367C1.12255 8.39022 1.04098 8.04813 1.01364 7.49978M4.49987 8.99978H7.49987M9.49987 8.98598C10.0482 8.95868 10.3903 8.87707 10.6338 8.63367C10.9999 8.26752 10.9999 7.67828 10.9999 6.49977V5.49977H8.64987C8.27762 5.49977 8.09147 5.49977 7.94087 5.45082C7.63642 5.35192 7.39772 5.11322 7.29882 4.80879C7.24987 4.65816 7.24987 4.47203 7.24987 4.09977C7.24987 3.54139 7.24987 3.2622 7.17647 3.03625C7.02807 2.57959 6.67007 2.22156 6.21342 2.07319C5.98747 1.99977 5.70827 1.99977 5.14987 1.99977H0.999868" stroke="#848484" stroke-width="0.75" stroke-linecap="round" stroke-linejoin="round"/>
<path d="M1.20021 4.49985H4.20021" stroke="#848484" stroke-width="0.75" stroke-linecap="round" stroke-linejoin="round"/>
<path d="M0.999868 5.50006H2.99987" stroke="#848484" stroke-width="0.75" stroke-linecap="round" stroke-linejoin="round"/>
<path d="M7.25081 2.99999H8.16141C8.88911 2.99999 9.25291 2.99999 9.54901 3.17684C9.84511 3.3537 10.0176 3.67404 10.3626 4.31474L11.0008 5.49999" stroke="#848484" stroke-width="0.75" stroke-linecap="round" stroke-linejoin="round"/>
</svg>
