<svg width="12" height="12" viewBox="0 0 12 12" fill="none" xmlns="http://www.w3.org/2000/svg">
<path d="M8.50024 9.99982C9.05252 9.99982 9.50024 9.55211 9.50024 8.99982C9.50024 8.44754 9.05252 7.99982 8.50024 7.99982C7.94795 7.99982 7.50024 8.44754 7.50024 8.99982C7.50024 9.55211 7.94795 9.99982 8.50024 9.99982Z" stroke="#848484" stroke-width="0.75"/>
<path d="M3.49994 9.99982C4.05223 9.99982 4.49994 9.55211 4.49994 8.99982C4.49994 8.44754 4.05223 7.99982 3.49994 7.99982C2.94766 7.99982 2.49994 8.44754 2.49994 8.99982C2.49994 9.55211 2.94766 9.99982 3.49994 9.99982Z" stroke="#848484" stroke-width="0.75"/>
<path d="M2.49993 8.98598C1.95157 8.95868 1.60948 8.87707 1.36604 8.63367C1.12261 8.39022 1.04104 8.04813 1.0137 7.49978M4.49993 8.99978H7.49993M9.49993 8.98598C10.0483 8.95868 10.3904 8.87707 10.6338 8.63367C10.9999 8.26752 10.9999 7.67828 10.9999 6.49977V5.49977H8.64993C8.27768 5.49977 8.09153 5.49977 7.94093 5.45082C7.63648 5.35192 7.39778 5.11322 7.29888 4.80879C7.24993 4.65816 7.24993 4.47203 7.24993 4.09977C7.24993 3.54139 7.24993 3.2622 7.17653 3.03625C7.02813 2.57959 6.67013 2.22156 6.21348 2.07319C5.98753 1.99977 5.70833 1.99977 5.14993 1.99977H0.999929" stroke="#848484" stroke-width="0.75" stroke-linecap="round" stroke-linejoin="round"/>
<path d="M1.20028 4.49985H4.20028" stroke="#848484" stroke-width="0.75" stroke-linecap="round" stroke-linejoin="round"/>
<path d="M0.999929 5.50006H2.99993" stroke="#848484" stroke-width="0.75" stroke-linecap="round" stroke-linejoin="round"/>
<path d="M7.25049 2.99999H8.16109C8.88879 2.99999 9.25259 2.99999 9.54869 3.17684C9.84479 3.3537 10.0173 3.67404 10.3623 4.31474L11.0005 5.49999" stroke="#848484" stroke-width="0.75" stroke-linecap="round" stroke-linejoin="round"/>
</svg>
