<svg width="12" height="12" viewBox="0 0 12 12" fill="none" xmlns="http://www.w3.org/2000/svg">
<path d="M8.50017 9.99982C9.05245 9.99982 9.50017 9.55211 9.50017 8.99982C9.50017 8.44754 9.05245 7.99982 8.50017 7.99982C7.94788 7.99982 7.50017 8.44754 7.50017 8.99982C7.50017 9.55211 7.94788 9.99982 8.50017 9.99982Z" stroke="#848484" stroke-width="0.75"/>
<path d="M3.49995 9.99982C4.05223 9.99982 4.49995 9.55211 4.49995 8.99982C4.49995 8.44754 4.05223 7.99982 3.49995 7.99982C2.94766 7.99982 2.49995 8.44754 2.49995 8.99982C2.49995 9.55211 2.94766 9.99982 3.49995 9.99982Z" stroke="#848484" stroke-width="0.75"/>
<path d="M2.49994 8.98598C1.95158 8.95868 1.60949 8.87707 1.36605 8.63367C1.12262 8.39022 1.04105 8.04813 1.01371 7.49978M4.49994 8.99978H7.49994M9.49994 8.98598C10.0483 8.95868 10.3904 8.87707 10.6338 8.63367C10.9999 8.26752 10.9999 7.67828 10.9999 6.49977V5.49977H8.64994C8.27769 5.49977 8.09154 5.49977 7.94094 5.45082C7.63649 5.35192 7.39779 5.11322 7.29889 4.80879C7.24994 4.65816 7.24994 4.47203 7.24994 4.09977C7.24994 3.54139 7.24994 3.2622 7.17654 3.03625C7.02814 2.57959 6.67014 2.22156 6.21349 2.07319C5.98754 1.99977 5.70834 1.99977 5.14994 1.99977H0.999936" stroke="#848484" stroke-width="0.75" stroke-linecap="round" stroke-linejoin="round"/>
<path d="M1.20025 4.49985H4.20025" stroke="#848484" stroke-width="0.75" stroke-linecap="round" stroke-linejoin="round"/>
<path d="M0.999936 5.50006H2.99994" stroke="#848484" stroke-width="0.75" stroke-linecap="round" stroke-linejoin="round"/>
<path d="M7.25042 2.99999H8.16102C8.88872 2.99999 9.25252 2.99999 9.54862 3.17684C9.84472 3.3537 10.0172 3.67404 10.3622 4.31474L11.0004 5.49999" stroke="#848484" stroke-width="0.75" stroke-linecap="round" stroke-linejoin="round"/>
</svg>
