<svg width="12" height="12" viewBox="0 0 12 12" fill="none" xmlns="http://www.w3.org/2000/svg">
<path d="M8.50017 9.99982C9.05246 9.99982 9.50017 9.55211 9.50017 8.99982C9.50017 8.44754 9.05246 7.99982 8.50017 7.99982C7.94789 7.99982 7.50017 8.44754 7.50017 8.99982C7.50017 9.55211 7.94789 9.99982 8.50017 9.99982Z" stroke="#848484" stroke-width="0.75"/>
<path d="M3.49988 9.99982C4.05216 9.99982 4.49988 9.55211 4.49988 8.99982C4.49988 8.44754 4.05216 7.99982 3.49988 7.99982C2.9476 7.99982 2.49988 8.44754 2.49988 8.99982C2.49988 9.55211 2.9476 9.99982 3.49988 9.99982Z" stroke="#848484" stroke-width="0.75"/>
<path d="M2.50002 8.98598C1.95166 8.95868 1.60957 8.87707 1.36614 8.63367C1.1227 8.39022 1.04113 8.04813 1.0138 7.49978M4.50002 8.99978H7.50002M9.50002 8.98598C10.0484 8.95868 10.3905 8.87707 10.6339 8.63367C11 8.26752 11 7.67828 11 6.49977V5.49977H8.65002C8.27777 5.49977 8.09162 5.49977 7.94102 5.45082C7.63657 5.35192 7.39787 5.11322 7.29897 4.80879C7.25002 4.65816 7.25002 4.47203 7.25002 4.09977C7.25002 3.54139 7.25002 3.2622 7.17662 3.03625C7.02822 2.57959 6.67022 2.22156 6.21357 2.07319C5.98762 1.99977 5.70842 1.99977 5.15002 1.99977H1.00002" stroke="#848484" stroke-width="0.75" stroke-linecap="round" stroke-linejoin="round"/>
<path d="M1.20021 4.49985H4.20021" stroke="#848484" stroke-width="0.75" stroke-linecap="round" stroke-linejoin="round"/>
<path d="M1.00002 5.50006H3.00002" stroke="#848484" stroke-width="0.75" stroke-linecap="round" stroke-linejoin="round"/>
<path d="M6.93841 2.48359H7.84901C8.57671 2.48359 8.94051 2.48359 9.23661 2.66045C9.53271 2.8373 9.70521 3.15765 10.0502 3.79834L10.6884 4.98359" stroke="#848484" stroke-width="0.75" stroke-linecap="round" stroke-linejoin="round"/>
</svg>
