<svg width="12" height="12" viewBox="0 0 12 12" fill="none" xmlns="http://www.w3.org/2000/svg">
<path d="M8.50029 9.99995C9.05258 9.99995 9.50029 9.55224 9.50029 8.99995C9.50029 8.44767 9.05258 7.99995 8.50029 7.99995C7.94801 7.99995 7.50029 8.44767 7.50029 8.99995C7.50029 9.55224 7.94801 9.99995 8.50029 9.99995Z" stroke="#848484" stroke-width="0.75"/>
<path d="M3.4999 9.99995C4.05219 9.99995 4.4999 9.55224 4.4999 8.99995C4.4999 8.44767 4.05219 7.99995 3.4999 7.99995C2.94762 7.99995 2.4999 8.44767 2.4999 8.99995C2.4999 9.55224 2.94762 9.99995 3.4999 9.99995Z" stroke="#848484" stroke-width="0.75"/>
<path d="M2.4999 8.98586C1.95154 8.95856 1.60945 8.87696 1.36602 8.63356C1.12258 8.39011 1.04101 8.04801 1.01368 7.49966M4.4999 8.99966H7.4999M9.4999 8.98586C10.0483 8.95856 10.3904 8.87696 10.6338 8.63356C10.9999 8.26741 10.9999 7.67816 10.9999 6.49966V5.49966H8.6499C8.27765 5.49966 8.0915 5.49966 7.9409 5.45071C7.63645 5.35181 7.39775 5.11311 7.29885 4.80867C7.2499 4.65804 7.2499 4.47191 7.2499 4.09966C7.2499 3.54127 7.2499 3.26208 7.1765 3.03613C7.0281 2.57948 6.6701 2.22145 6.21345 2.07307C5.9875 1.99966 5.7083 1.99966 5.1499 1.99966H0.999902" stroke="#848484" stroke-width="0.75" stroke-linecap="round" stroke-linejoin="round"/>
<path d="M1.20029 4.5H4.20029" stroke="#848484" stroke-width="0.75" stroke-linecap="round" stroke-linejoin="round"/>
<path d="M0.999902 5.5002H2.9999" stroke="#848484" stroke-width="0.75" stroke-linecap="round" stroke-linejoin="round"/>
<path d="M7.25039 2.99985H8.16099C8.88869 2.99985 9.25249 2.99985 9.54859 3.17671C9.84469 3.35356 10.0172 3.67391 10.3622 4.3146L11.0004 5.49985" stroke="#848484" stroke-width="0.75" stroke-linecap="round" stroke-linejoin="round"/>
</svg>
