<svg width="12" height="12" viewBox="0 0 12 12" fill="none" xmlns="http://www.w3.org/2000/svg">
<path d="M8.50019 9.99982C9.05248 9.99982 9.50019 9.55211 9.50019 8.99982C9.50019 8.44754 9.05248 7.99982 8.50019 7.99982C7.94791 7.99982 7.50019 8.44754 7.50019 8.99982C7.50019 9.55211 7.94791 9.99982 8.50019 9.99982Z" stroke="#848484" stroke-width="0.75"/>
<path d="M3.49996 9.99982C4.05224 9.99982 4.49996 9.55211 4.49996 8.99982C4.49996 8.44754 4.05224 7.99982 3.49996 7.99982C2.94767 7.99982 2.49996 8.44754 2.49996 8.99982C2.49996 9.55211 2.94767 9.99982 3.49996 9.99982Z" stroke="#848484" stroke-width="0.75"/>
<path d="M2.49995 8.98598C1.95159 8.95868 1.6095 8.87707 1.36607 8.63367C1.12263 8.39022 1.04106 8.04813 1.01373 7.49978M4.49995 8.99978H7.49995M9.49995 8.98598C10.0483 8.95868 10.3904 8.87707 10.6339 8.63367C11 8.26752 11 7.67828 11 6.49977V5.49977H8.64995C8.2777 5.49977 8.09155 5.49977 7.94095 5.45082C7.6365 5.35192 7.3978 5.11322 7.2989 4.80879C7.24995 4.65816 7.24995 4.47203 7.24995 4.09977C7.24995 3.54139 7.24995 3.2622 7.17655 3.03625C7.02815 2.57959 6.67015 2.22156 6.2135 2.07319C5.98755 1.99977 5.70835 1.99977 5.14995 1.99977H0.999954" stroke="#848484" stroke-width="0.75" stroke-linecap="round" stroke-linejoin="round"/>
<path d="M1.20027 4.49985H4.20027" stroke="#848484" stroke-width="0.75" stroke-linecap="round" stroke-linejoin="round"/>
<path d="M0.999954 5.50006H2.99995" stroke="#848484" stroke-width="0.75" stroke-linecap="round" stroke-linejoin="round"/>
<path d="M7.25044 2.99999H8.16104C8.88874 2.99999 9.25254 2.99999 9.54864 3.17684C9.84474 3.3537 10.0172 3.67404 10.3622 4.31474L11.0004 5.49999" stroke="#848484" stroke-width="0.75" stroke-linecap="round" stroke-linejoin="round"/>
</svg>
