<svg width="16" height="16" viewBox="0 0 16 16" fill="none" xmlns="http://www.w3.org/2000/svg">
<path d="M11.3333 13.3333C12.0697 13.3333 12.6667 12.7363 12.6667 11.9999C12.6667 11.2636 12.0697 10.6666 11.3333 10.6666C10.597 10.6666 10 11.2636 10 11.9999C10 12.7363 10.597 13.3333 11.3333 13.3333Z" stroke="#848484"/>
<path d="M4.66654 13.3333C5.40292 13.3333 5.99987 12.7363 5.99987 11.9999C5.99987 11.2636 5.40292 10.6666 4.66654 10.6666C3.93016 10.6666 3.3332 11.2636 3.3332 11.9999C3.3332 12.7363 3.93016 13.3333 4.66654 13.3333Z" stroke="#848484"/>
<path d="M3.3332 11.9815C2.60206 11.9451 2.14594 11.8363 1.82136 11.5118C1.49678 11.1872 1.38802 10.7311 1.35157 9.99994M5.99987 11.9999H9.99987M12.6665 11.9815C13.3977 11.9451 13.8538 11.8363 14.1784 11.5118C14.6665 11.0236 14.6665 10.2379 14.6665 8.6666V7.33327H11.5332C11.0369 7.33327 10.7887 7.33327 10.5879 7.268C10.1819 7.13613 9.86367 6.81787 9.7318 6.41195C9.66654 6.21111 9.66654 5.96294 9.66654 5.4666C9.66654 4.72209 9.66654 4.34983 9.56867 4.04857C9.3708 3.43969 8.89347 2.96232 8.2846 2.76449C7.98334 2.6666 7.61107 2.6666 6.86654 2.6666H1.3332" stroke="#848484" stroke-linecap="round" stroke-linejoin="round"/>
<path d="M1.6 6H5.6" stroke="#848484" stroke-linecap="round" stroke-linejoin="round"/>
<path d="M1.3332 7.3334H3.99987" stroke="#848484" stroke-linecap="round" stroke-linejoin="round"/>
<path d="M9.6668 4H10.8809C11.8512 4 12.3363 4 12.7311 4.23581C13.1259 4.47161 13.3559 4.89874 13.8159 5.753L14.6668 7.33333" stroke="#848484" stroke-linecap="round" stroke-linejoin="round"/>
</svg>
