<svg width="26" height="26" viewBox="0 0 26 26" fill="none" xmlns="http://www.w3.org/2000/svg">
<path d="M12.6684 24.4529C19.1767 24.4529 24.4529 19.1767 24.4529 12.6684C24.4529 6.15994 19.1767 0.883838 12.6684 0.883838C6.15996 0.883838 0.883858 6.15994 0.883858 12.6684C0.883858 14.2933 1.21273 15.8414 1.80755 17.2498C2.13629 18.0281 2.30066 18.4173 2.32102 18.7114C2.34137 19.0056 2.2548 19.3291 2.08166 19.9762L0.883858 24.4529L5.36052 23.2551C6.00762 23.082 6.33118 22.9954 6.6253 23.0157C6.91943 23.036 7.3086 23.2004 8.08697 23.5292C9.49533 24.124 11.0434 24.4529 12.6684 24.4529Z" stroke="white" stroke-width="1.76768" stroke-linejoin="round"/>
</svg>
