<svg width="14" height="14" viewBox="0 0 14 14" fill="none" xmlns="http://www.w3.org/2000/svg">
<path d="M2.7549 7.22097L3.78126 5.94624C4.21383 5.40898 4.74854 4.90885 4.7905 4.19348C4.80098 4.0128 4.67395 3.20159 4.41964 1.5792C4.31972 0.941602 3.72442 0.884082 3.2088 0.884082C2.53687 0.884082 2.20091 0.884082 1.86729 1.03647C1.44563 1.22907 1.01272 1.77064 0.917715 2.22437C0.842554 2.58336 0.898413 2.83073 1.01013 3.32547C1.48462 5.42678 2.59776 7.50203 4.3238 9.22811C6.04991 10.9542 8.12516 12.0673 10.2265 12.5418C10.7212 12.6535 10.9685 12.7094 11.3276 12.6342C11.7813 12.5392 12.3228 12.1064 12.5155 11.6846C12.6679 11.351 12.6679 11.0151 12.6679 10.3432C12.6679 9.82747 12.6103 9.23223 11.9727 9.1323C10.3503 8.87799 9.53918 8.75095 9.35841 8.76144C8.64309 8.80339 8.14295 9.33806 7.6057 9.77067L6.33097 10.797" stroke="white" stroke-width="1.76768"/>
</svg>
