<svg width="8" height="8" viewBox="0 0 8 8" fill="none" xmlns="http://www.w3.org/2000/svg">
<path d="M0.750001 3.75C0.750001 2.8181 0.750001 2.3522 0.902201 1.9846C1.1052 1.4946 1.4946 1.1052 1.9846 0.902201C2.3522 0.750001 2.8181 0.750001 3.75 0.750001C4.6819 0.750001 5.1478 0.750001 5.5154 0.902201C6.0054 1.1052 6.3948 1.4946 6.5978 1.9846C6.75 2.3522 6.75 2.8181 6.75 3.75C6.75 4.6819 6.75 5.1478 6.5978 5.5154C6.3948 6.0054 6.0054 6.3948 5.5154 6.5978C5.1478 6.75 4.6819 6.75 3.75 6.75C2.8181 6.75 2.3522 6.75 1.9846 6.5978C1.4946 6.3948 1.1052 6.0054 0.902201 5.5154C0.750001 5.1478 0.750001 4.6819 0.750001 3.75Z" stroke="#848484" stroke-width="1.5"/>
</svg>
