<svg width="15" height="11" viewBox="0 0 15 11" fill="none" xmlns="http://www.w3.org/2000/svg">
<path d="M2.5 9.81498C1.76885 9.77858 1.31273 9.66978 0.988153 9.34525C0.663573 9.02065 0.554813 8.56451 0.518367 7.83338M5.16667 9.83338H9.16667M11.8333 9.81498C12.5645 9.77858 13.0206 9.66978 13.3452 9.34525C13.8333 8.85705 13.8333 8.07138 13.8333 6.50005V5.16671H10.7C10.2037 5.16671 9.95547 5.16671 9.75467 5.10145C9.34873 4.96958 9.03047 4.65131 8.8986 4.2454C8.83333 4.04456 8.83333 3.79639 8.83333 3.30005C8.83333 2.55553 8.83333 2.18328 8.73547 1.88201C8.5376 1.27314 8.06027 0.795767 7.4514 0.597934C7.15013 0.500047 6.77787 0.500047 6.03333 0.500047H0.5" stroke="#848484" stroke-linecap="round" stroke-linejoin="round"/>
</svg>
