<svg width="8" height="8" viewBox="0 0 8 8" fill="none" xmlns="http://www.w3.org/2000/svg">
<path d="M0.75 3.75C0.75 2.81812 0.75 2.35218 0.90224 1.98463C1.10523 1.49458 1.49458 1.10523 1.98463 0.90224C2.35218 0.75 2.81812 0.75 3.75 0.75C4.68188 0.75 5.1478 0.75 5.5154 0.90224C6.0054 1.10523 6.3948 1.49458 6.5978 1.98463C6.75 2.35218 6.75 2.81812 6.75 3.75C6.75 4.68188 6.75 5.14782 6.5978 5.51537C6.3948 6.00542 6.0054 6.39477 5.5154 6.59776C5.1478 6.75 4.68188 6.75 3.75 6.75C2.81812 6.75 2.35218 6.75 1.98463 6.59776C1.49458 6.39477 1.10523 6.00542 0.90224 5.51537C0.75 5.14782 0.75 4.68188 0.75 3.75Z" stroke="#848484" stroke-width="1.5"/>
</svg>
