<svg width="11" height="8" viewBox="0 0 11 8" fill="none" xmlns="http://www.w3.org/2000/svg">
<path d="M1.875 7.36124C1.32664 7.33394 0.98455 7.25234 0.741115 7.00894C0.49768 6.76549 0.41611 6.42339 0.388775 5.87504M3.875 7.37504H6.875M8.875 7.36124C9.42335 7.33394 9.76545 7.25234 10.0089 7.00894C10.375 6.64279 10.375 6.05354 10.375 4.87504V3.87504H8.025C7.65275 3.87504 7.4666 3.87504 7.316 3.82609C7.01155 3.72719 6.77285 3.48849 6.67395 3.18405C6.625 3.03342 6.625 2.84729 6.625 2.47504C6.625 1.91665 6.625 1.63746 6.5516 1.41151C6.4032 0.954856 6.0452 0.596826 5.58855 0.448451C5.3626 0.375036 5.0834 0.375036 4.525 0.375036H0.375" stroke="#848484" stroke-width="0.75" stroke-linecap="round" stroke-linejoin="round"/>
</svg>
