<svg width="29" height="29" viewBox="0 0 29 29" fill="none" xmlns="http://www.w3.org/2000/svg">
<path d="M14.1419 25.9264C20.6502 25.9264 25.9264 20.6502 25.9264 14.1419C25.9264 7.63346 20.6502 2.35735 14.1419 2.35735C7.63346 2.35735 2.35735 7.63346 2.35735 14.1419C2.35735 15.7668 2.68622 17.315 3.28105 18.7233C3.60979 19.5016 3.77416 19.8908 3.79451 20.185C3.81486 20.4791 3.72829 20.8026 3.55515 21.4497L2.35735 25.9264L6.83402 24.7286C7.48112 24.5555 7.80467 24.4689 8.09879 24.4893C8.39292 24.5095 8.78209 24.6739 9.56046 25.0027C10.9688 25.5975 12.5169 25.9264 14.1419 25.9264Z" stroke="white" stroke-width="1.76768" stroke-linejoin="round"/>
<path d="M10.1206 14.586L11.147 13.3112C11.5796 12.774 12.1143 12.2738 12.1562 11.5585C12.1667 11.3778 12.0397 10.5666 11.7854 8.9442C11.6855 8.3066 11.0902 8.24908 10.5745 8.24908C9.90261 8.24908 9.56665 8.24908 9.23303 8.40147C8.81137 8.59407 8.37846 9.13564 8.28346 9.58937C8.20829 9.94836 8.26415 10.1957 8.37587 10.6905C8.85036 12.7918 9.9635 14.867 11.6895 16.5931C13.4156 18.3192 15.4909 19.4323 17.5922 19.9068C18.0869 20.0185 18.3343 20.0744 18.6933 19.9992C19.147 19.9042 19.6885 19.4714 19.8812 19.0496C20.0336 18.716 20.0336 18.3801 20.0336 17.7082C20.0336 17.1925 19.9761 16.5972 19.3384 16.4973C17.7161 16.243 16.9049 16.1159 16.7241 16.1264C16.0088 16.1684 15.5087 16.7031 14.9714 17.1357L13.6967 18.162" stroke="white" stroke-width="1.76768"/>
</svg>
